<svg xmlns="http://www.w3.org/2000/svg" viewBox="0 0 192 192" width="192" height="192" role="img" aria-label="MiniPOS icon">
  <defs>
    <linearGradient id="bg192" x1="24" y1="18" x2="168" y2="174" gradientUnits="userSpaceOnUse">
      <stop offset="0" stop-color="#16a34a"/>
      <stop offset="1" stop-color="#14532d"/>
    </linearGradient>
    <linearGradient id="card192" x1="52" y1="42" x2="140" y2="150" gradientUnits="userSpaceOnUse">
      <stop offset="0" stop-color="#f7fee7"/>
      <stop offset="1" stop-color="#dcfce7"/>
    </linearGradient>
  </defs>
  <rect width="192" height="192" rx="42" fill="#0f172a"/>
  <rect x="12" y="12" width="168" height="168" rx="36" fill="url(#bg192)"/>
  <circle cx="144" cy="48" r="20" fill="#dcfce7" opacity="0.16"/>
  <circle cx="54" cy="142" r="28" fill="#bbf7d0" opacity="0.18"/>
  <path d="M60 56h72a12 12 0 0 1 12 12v56a16 16 0 0 1-16 16H64a16 16 0 0 1-16-16V68a12 12 0 0 1 12-12Z" fill="url(#card192)"/>
  <path d="M74 56a22 22 0 0 1 44 0" fill="none" stroke="#14532d" stroke-width="8" stroke-linecap="round"/>
  <path d="M66 88h60" stroke="#16a34a" stroke-width="10" stroke-linecap="round" opacity="0.9"/>
  <path d="M66 108h34" stroke="#15803d" stroke-width="10" stroke-linecap="round" opacity="0.88"/>
  <rect x="108" y="100" width="20" height="32" rx="6" fill="#166534"/>
  <path d="M114 106v20M120 106v20M126 106v20" stroke="#dcfce7" stroke-width="2.6" stroke-linecap="round"/>
  <circle cx="136" cy="134" r="12" fill="#fef08a"/>
  <path d="M132 134l3 3 6-8" fill="none" stroke="#14532d" stroke-width="3.5" stroke-linecap="round" stroke-linejoin="round"/>
</svg>
